<svg xmlns="http://www.w3.org/2000/svg" viewBox="0 0 512 512" width="512" height="512">
  <!-- Background -->
  <rect width="512" height="512" rx="110" fill="#3d1a24"/>
  
  <!-- Book cover -->
  <rect x="116" y="96" width="280" height="320" rx="12" fill="#6b2737"/>
  
  <!-- Book spine -->
  <rect x="116" y="96" width="36" height="320" rx="8" fill="#4a1a22"/>
  
  <!-- Gold border -->
  <rect x="165" y="116" width="216" height="280" rx="8" fill="none" stroke="#c9a84c" stroke-width="5"/>

  <!-- FAMILY text -->
  <text x="273" y="208" text-anchor="middle" fill="#c9a84c" font-size="34" font-weight="700" font-family="Georgia, serif" letter-spacing="6">FAMILY</text>

  <!-- RECIPES text -->
  <text x="273" y="278" text-anchor="middle" fill="#c9a84c" font-size="34" font-weight="700" font-family="Georgia, serif" letter-spacing="4">RECIPES</text>

  <!-- Line under RECIPES only -->
  <line x1="178" y1="295" x2="368" y2="295" stroke="#c9a84c" stroke-width="3" opacity="0.7"/>

  <!-- Heart below line -->
  <path d="M273 358 C273 358 248 340 248 324 C248 313 256 307 263 310 C267 312 271 317 273 322 C275 317 279 312 283 310 C290 307 298 313 298 324 C298 340 273 358 273 358Z" fill="#c9a84c"/>

</svg>
